<svg width="463" height="392" viewBox="0 0 463 392" fill="none" xmlns="http://www.w3.org/2000/svg">
<path d="M95.9294 54.2902C54.4294 86.2902 17.8294 133.69 4.6294 193.29C-8.5706 252.89 6.62939 324.79 48.0294 357.09C62.4294 368.39 78.9294 374.39 95.5294 378.69C120.029 385.09 145.029 388.19 169.929 389.89C213.329 392.79 257.329 391.59 299.829 379.69C342.329 367.79 383.529 344.69 415.929 307.69C432.929 288.39 447.529 265.09 455.729 237.99C463.929 210.99 465.429 179.99 457.029 152.99C449.529 129.09 435.029 109.99 419.729 93.3902C385.429 56.1902 345.029 28.3902 301.929 11.8902C257.029 -5.30983 214.729 -3.00983 169.629 13.3902C143.829 22.8902 118.929 36.5902 95.9294 54.2902Z" fill="#F65E5D"/>
<path d="M279.129 46.4902C297.729 46.4902 312.829 74.7902 312.829 98.7902C312.829 122.79 297.729 142.19 279.129 142.19C260.529 142.19 245.429 122.79 245.429 98.7902C245.529 74.7902 260.529 46.4902 279.129 46.4902Z" fill="white"/>
<path d="M183.529 46.4902C202.129 46.4902 217.229 74.7902 217.229 98.7902C217.229 122.79 202.129 142.19 183.529 142.19C164.929 142.19 149.829 122.79 149.829 98.7902C149.829 74.7902 164.929 46.4902 183.529 46.4902Z" fill="white"/>
<path d="M82.6294 172.89C74.7294 153.09 78.2294 124.69 93.9294 118.39C109.729 112.09 131.829 130.29 139.729 150.09C147.629 169.89 141.229 190.99 125.529 197.29C109.729 203.59 90.5294 192.69 82.6294 172.89Z" fill="white"/>
<path d="M380.029 172.89C372.129 192.69 352.929 203.59 337.229 197.29C321.429 190.99 315.129 169.89 323.029 150.09C330.929 130.29 353.029 112.09 368.829 118.39C384.429 124.69 387.929 153.19 380.029 172.89Z" fill="white"/>
<path d="M351.829 282.19C348.229 265.99 339.629 251.39 330.129 237.89C307.829 206.19 272.129 174.19 231.429 174.19C190.929 174.19 155.029 206.19 132.729 237.89C123.229 251.39 114.629 265.99 111.029 282.19C107.429 298.39 109.429 316.49 119.429 329.69C129.429 342.89 148.429 349.39 163.329 342.29C172.129 338.09 179.329 329.49 189.029 328.69C197.929 327.89 205.929 333.99 213.329 338.99C218.729 342.59 225.229 345.99 231.429 345.99C237.629 345.99 244.129 342.59 249.529 338.99C257.029 333.99 264.929 327.89 273.829 328.69C283.529 329.49 290.729 338.09 299.529 342.29C314.429 349.39 333.429 342.89 343.429 329.69C353.429 316.49 355.429 298.29 351.829 282.19ZM266.729 262.59C262.129 270.99 254.929 278.39 248.729 284.09C245.429 287.19 242.029 290.09 238.429 292.79C234.229 295.89 228.429 295.89 224.229 292.79C220.629 290.09 217.129 287.19 213.929 284.09C207.829 278.39 200.529 270.99 195.929 262.59C192.129 255.69 190.129 248.09 192.129 240.09C194.029 232.49 200.029 225.79 207.329 224.89C215.829 223.79 225.729 229.79 231.329 236.69C236.929 229.79 246.829 223.79 255.329 224.89C262.729 225.79 268.729 232.49 270.529 240.09C272.529 248.09 270.529 255.69 266.729 262.59Z" fill="white"/>
</svg>
